<?xml version="1.0" standalone="no"?>
<!DOCTYPE svg PUBLIC "-//W3C//DTD SVG 20010904//EN"
 "http://www.w3.org/TR/2001/REC-SVG-20010904/DTD/svg10.dtd">
<svg version="1.0" xmlns="http://www.w3.org/2000/svg"
 width="512.000000pt" height="512.000000pt" viewBox="0 0 512.000000 512.000000"
 preserveAspectRatio="xMidYMid meet">
<metadata>
Created by potrace 1.14, written by Peter Selinger 2001-2017
</metadata>
<g transform="translate(0.000000,512.000000) scale(0.100000,-0.100000)"
fill="#000000" stroke="none">
<path d="M1705 4375 c-76 -20 -102 -32 -160 -70 -126 -84 -214 -206 -299 -415
-15 -36 -31 -74 -36 -85 -10 -22 -286 -691 -331 -800 -15 -38 -50 -124 -78
-190 -27 -66 -49 -121 -48 -121 1 -1 53 11 115 26 97 25 283 60 390 75 18 3
44 7 60 9 15 2 52 7 82 11 30 3 62 8 70 10 8 2 49 7 90 10 41 4 86 8 100 10
14 2 68 7 120 11 52 3 113 8 135 10 311 24 961 24 1290 -1 22 -1 85 -6 140
-10 55 -4 107 -9 115 -10 8 -2 49 -6 90 -9 41 -4 86 -9 100 -11 25 -4 74 -11
140 -19 66 -8 290 -46 338 -57 26 -6 59 -13 74 -15 15 -3 58 -14 95 -24 37
-10 69 -18 70 -16 2 2 -118 295 -170 416 -9 19 -25 60 -37 90 -12 30 -28 71
-37 90 -8 19 -19 44 -24 55 -4 11 -51 126 -104 255 -53 129 -102 247 -110 262
-8 14 -15 31 -15 37 0 19 -80 178 -113 224 -154 214 -360 306 -562 250 -65
-18 -128 -51 -212 -112 -278 -202 -575 -200 -852 4 -151 111 -290 147 -426
110z"/>
<path d="M2138 2675 c-1 -1 -84 -6 -183 -9 -99 -4 -198 -9 -220 -11 -22 -3
-78 -7 -125 -10 -152 -9 -361 -30 -505 -49 -133 -18 -196 -28 -235 -36 -25 -5
-58 -11 -75 -13 -50 -7 -185 -38 -280 -64 -195 -53 -336 -131 -350 -192 -4
-17 -4 -34 -1 -39 3 -5 31 -5 63 -1 80 10 140 18 193 24 25 3 61 7 80 10 19 2
64 7 100 10 36 3 81 7 100 10 19 2 64 7 100 10 36 3 85 8 110 10 62 6 192 15
435 30 395 24 626 30 1185 30 473 0 658 -4 995 -20 85 -4 277 -15 335 -20 30
-2 84 -7 120 -9 148 -12 217 -18 250 -21 19 -2 67 -6 105 -10 39 -3 84 -8 100
-10 17 -2 59 -7 95 -10 36 -4 78 -8 95 -10 43 -5 126 -16 155 -20 50 -7 136
-18 155 -19 26 -1 31 33 11 73 -47 91 -317 188 -696 251 -41 6 -97 16 -125 20
-47 8 -74 12 -192 25 -27 3 -64 8 -83 10 -19 3 -60 7 -90 10 -30 2 -82 7 -115
11 -62 6 -77 7 -285 19 -69 4 -143 9 -165 11 -45 5 -1051 14 -1057 9z"/>
<path d="M1379 2110 c-369 -96 -594 -452 -519 -821 69 -337 387 -579 730 -555
331 23 607 285 646 612 9 80 39 140 98 200 69 68 134 93 236 90 165 -4 294
-118 315 -276 11 -86 28 -145 61 -219 180 -394 659 -530 1019 -290 444 297
401 965 -77 1201 -122 61 -204 79 -338 74 -261 -10 -487 -158 -600 -394 l-25
-52 -51 38 c-135 101 -296 132 -454 86 -70 -20 -102 -37 -168 -86 -30 -22 -55
-38 -56 -36 -2 1 -13 26 -26 53 -76 165 -228 298 -415 361 -103 35 -273 41
-376 14z m238 -174 c245 -27 435 -245 437 -501 2 -353 -337 -602 -669 -490
-167 56 -284 177 -336 348 -28 93 -21 230 16 322 65 159 185 267 345 308 62
16 124 25 145 20 6 -1 33 -4 62 -7z m2038 -1 c144 -15 300 -125 372 -260 181
-344 -60 -753 -447 -756 -235 -1 -438 154 -500 381 -7 25 -13 83 -13 130 -3
256 183 472 435 506 24 4 45 8 47 10 2 1 15 1 30 -1 14 -2 49 -6 76 -10z"/>
</g>
</svg>
